<?xml version="1.0" encoding="UTF-8"?>
<svg id="Layer_1" xmlns="http://www.w3.org/2000/svg" version="1.1" viewBox="0 0 498 202">
  <!-- Generator: Adobe Illustrator 29.4.0, SVG Export Plug-In . SVG Version: 2.1.0 Build 152)  -->
  <defs>
    <style>
      .st0 {
        fill: #010101;
      }

      .st1 {
        stroke-width: 8.14px;
      }

      .st1, .st2 {
        fill: none;
        stroke: #010101;
        stroke-miterlimit: 15.17;
      }

      .st2 {
        stroke-width: 5.43px;
      }
    </style>
  </defs>
  <circle class="st1" cx="413.71" cy="82.15" r="44.76"/>
  <path class="st2" d="M392.28,1.32h42.99l4.16,15.46,1.28.53c26.31,10.89,43.4,36.48,43.4,64.96,0,3.07-.2,6.14-.6,9.18l-.18,1.37,11.35,11.35-21.43,37.16-15.46-4.15-1.1.84c-12.29,9.43-27.4,14.51-42.86,14.51s-30.52-5.11-42.86-14.51l-1.1-.84-15.46,4.15-21.43-37.16,11.35-11.35-.18-1.37c-.4-3.05-.6-6.12-.6-9.18,0-28.48,17.09-54.11,43.4-64.96l1.28-.53,4.04-15.46h0Z"/>
  <path id="b" class="st0" d="M409.64,26.68v32.55h-6.89l10.96,18.99,10.96-18.99h-6.89V26.68h-8.12"/>
  <g id="a">
    <path id="b1" class="st0" d="M463.78,106.36l-28.19-16.28,3.44-5.97h-21.92l10.96,18.98,3.44-5.97,28.19,16.27,4.06-7.04"/>
  </g>
  <g id="a1">
    <path id="b2" class="st0" d="M367.71,113.41l28.19-16.28,3.44,5.97,10.96-18.98h-21.92l3.44,5.97-28.19,16.28,4.06,7.04"/>
  </g>
  <g>
    <path d="M83.03,3.64v27.68h-37.97c-2.51,0-4.48.1-5.93.3-1.45.2-2.9.89-4.35,2.08-1.45,1.19-2.17,2.97-2.17,5.34,0,2.51.92,4.88,2.77,7.12.66.79,1.29,1.52,1.88,2.17.59.66,1.35,1.35,2.27,2.08.92.73,1.61,1.32,2.08,1.78.46.46,1.32,1.09,2.57,1.88s2.08,1.29,2.47,1.48,1.35.79,2.87,1.78c1.51.99,2.4,1.55,2.67,1.68,17.27,10.42,27.81,18.85,31.64,25.31,3.29,5.27,4.94,11.93,4.94,19.97s-1.65,14.24-4.94,19.77c-2.51,4.09-5.37,7.45-8.6,10.08-3.23,2.64-6.86,4.48-10.88,5.54-4.02,1.06-7.51,1.71-10.48,1.98-2.97.27-6.76.4-11.37.4H2.75v-27.68h37.57c2.5,0,4.51-.07,6.03-.2,1.51-.13,3.39-.46,5.64-.99,2.24-.53,3.92-1.51,5.04-2.97,1.12-1.45,1.68-3.36,1.68-5.73,0-1.32-.3-2.64-.89-3.96s-1.22-2.44-1.88-3.36-1.75-2.01-3.26-3.26c-1.52-1.25-2.7-2.14-3.56-2.67s-2.37-1.48-4.55-2.87c-2.18-1.38-3.66-2.34-4.45-2.87-9.76-6.33-17-11.37-21.75-15.13-4.75-3.76-8.37-7.81-10.88-12.16-3.3-5.4-4.94-11.73-4.94-18.98,0-7.64,1.91-14.37,5.73-20.17,3.03-4.75,6.85-8.3,11.47-10.68,4.61-2.37,8.73-3.76,12.36-4.15,3.62-.4,8.67-.59,15.13-.59h35.79Z"/>
    <path d="M189.21,114.37v27.68h-14.63c-8.7,0-16.71-1.15-24.02-3.46-7.32-2.31-13.48-5.37-18.49-9.2-5.01-3.82-9.06-7.45-12.16-10.88-3.1-3.43-5.77-7.05-8.01-10.88-6.2-10.54-9.29-22.15-9.29-34.8s3.1-24.25,9.29-34.8c2.24-3.82,4.91-7.45,8.01-10.88,3.1-3.43,7.15-7.05,12.16-10.88,5.01-3.82,11.17-6.89,18.49-9.19s15.32-3.46,24.02-3.46h14.63v27.68h-14.63c-12.13,0-22.28,3.95-30.45,11.86s-12.26,17.8-12.26,29.66,4.08,21.75,12.26,29.66c8.17,7.91,18.32,11.86,30.45,11.86h14.63v.03Z"/>
    <path d="M233.9,142.05h-29.26V49.31c0-13.84,4.12-25.31,12.36-34.41S236.94,1.26,252.1,1.26c16.08,0,28.54,4.78,37.37,14.34,8.83,9.56,13.25,21.19,13.25,34.9s-4.22,24.36-12.65,32.33c-8.44,7.98-18.98,11.96-31.64,11.96h-16.61v-25.71h11.67c6.06,0,10.91-1.78,14.53-5.34s5.44-8.3,5.44-14.24c0-6.59-1.98-11.67-5.93-15.23-3.96-3.56-8.64-5.34-14.04-5.34-5.67,0-10.35,2.08-14.04,6.23-3.69,4.15-5.54,10.12-5.54,17.9v88.98h-.01Z"/>
  </g>
  <g>
    <path d="M5.09,165.27c2.13-2.22,4.78-3.32,7.94-3.32s5.81,1.11,7.94,3.32,3.2,4.88,3.2,7.98-1.07,5.76-3.2,7.98c-2.13,2.22-4.78,3.33-7.94,3.33s-5.81-1.11-7.94-3.33c-2.13-2.22-3.2-4.87-3.2-7.98s1.07-5.76,3.2-7.98ZM17.75,168.36c-1.21-1.28-2.78-1.92-4.71-1.92s-3.51.64-4.71,1.92c-1.21,1.28-1.81,2.91-1.81,4.88s.6,3.61,1.81,4.89c1.21,1.28,2.78,1.92,4.71,1.92s3.51-.64,4.71-1.92c1.21-1.28,1.81-2.91,1.81-4.89s-.6-3.61-1.81-4.88Z"/>
    <path d="M31.86,174.53v-3.87c1-.62,2.12-.94,3.37-.94,1.35,0,2.54.3,3.56.91.96.58,1.73,1.41,2.33,2.48.59,1.07.89,2.31.89,3.7,0,2.1-.67,3.92-2.01,5.45s-3.2,2.29-5.57,2.29c-2.16,0-3.93-.66-5.31-1.97-1.67-1.6-2.5-3.99-2.5-7.15v-2.72c0-4.27,1.3-7.24,3.9-8.93.69-.46,1.5-.8,2.45-1.03.95-.23,1.73-.36,2.34-.39.61-.03,1.45-.05,2.51-.05h3.25v3.87h-4.42c-.07,0-.26,0-.56.02-.3.01-.51.03-.62.05-.11.02-.31.04-.58.06s-.48.06-.64.11-.34.11-.55.17c-.21.06-.4.14-.58.23s-.35.19-.51.3c-1.33.92-2,2.47-2,4.65v3.4c0,.58.02,1.09.05,1.51.03.43.12.91.27,1.45s.35.98.61,1.31c.26.33.64.62,1.14.86.5.24,1.1.36,1.81.36,1.06,0,1.91-.33,2.56-.98.64-.66.97-1.52.97-2.61s-.36-1.99-1.09-2.59c-.73-.6-1.59-.91-2.59-.91-.94,0-1.76.31-2.47.94Z"/>
    <path d="M57.58,177.21l2.59,2.12c-.73,1.62-1.79,2.9-3.2,3.82-1.4.93-2.98,1.39-4.73,1.39-2.41,0-4.39-.79-5.93-2.36-1.54-1.57-2.31-3.5-2.31-5.79,0-2.12.74-3.95,2.23-5.48,1.49-1.53,3.46-2.29,5.92-2.29,1.77,0,3.31.45,4.64,1.36,1.32.91,2.31,2.12,2.98,3.64l-8.93,5.43-1.34-2.28,5.68-3.62c-.75-.79-1.76-1.19-3.03-1.19-1.73,0-2.96.72-3.68,2.15-.31.62-.47,1.37-.47,2.25,0,.71.17,1.39.5,2.06.37.77.92,1.39,1.64,1.86.72.47,1.57.7,2.54.7,1.08,0,2.06-.35,2.95-1.05.88-.7,1.53-1.61,1.95-2.73Z"/>
    <path d="M62.33,169h5.9c1.79,0,3.06.49,3.81,1.47.46.58.69,1.29.69,2.12,0,.56-.1,1.06-.31,1.5-.37.85-1.04,1.5-2,1.94,1.12.23,1.95.87,2.47,1.94.29.62.44,1.25.44,1.87,0,.98-.24,1.81-.72,2.5-.9,1.23-2.42,1.84-4.59,1.84h-5.71v-3.87h4.84c.44,0,.78,0,1.03-.03.25-.02.5-.13.77-.34.26-.21.39-.51.39-.91,0-.29-.06-.54-.19-.73-.12-.2-.31-.33-.56-.39-.25-.06-.46-.1-.64-.12-.18-.02-.4-.03-.67-.03h-3.68v-2.81h3.09c1.37,0,2.06-.34,2.06-1.03,0-.25-.07-.45-.2-.61-.14-.16-.34-.26-.61-.31-.27-.05-.48-.08-.64-.09-.16-.01-.38-.02-.67-.02h-4.28v-3.87Z"/>
    <path d="M77.75,182.24c-1.54-1.54-2.31-3.42-2.31-5.65s.77-4.11,2.31-5.65c1.54-1.54,3.42-2.31,5.65-2.31s4.11.77,5.65,2.31c1.54,1.54,2.31,3.42,2.31,5.65s-.77,4.11-2.31,5.65c-1.54,1.54-3.42,2.31-5.65,2.31s-4.11-.77-5.65-2.31ZM80.59,173.68c-.77.79-1.15,1.76-1.15,2.9s.38,2.11,1.15,2.9c.77.79,1.71,1.19,2.81,1.19s2.04-.4,2.81-1.19c.77-.79,1.15-1.76,1.15-2.9s-.39-2.11-1.15-2.9c-.77-.79-1.71-1.19-2.81-1.19s-2.04.4-2.81,1.19Z"/>
    <path d="M93.79,184.17v-15.17h6.34c2.33,0,4.03.54,5.09,1.62.46.46.81,1.01,1.05,1.67s.38,1.23.42,1.72c.04.49.06,1.17.06,2.04v8.12h-4v-8.05c0-.52-.03-.93-.08-1.23-.05-.3-.17-.63-.34-.98-.18-.35-.49-.61-.94-.78-.45-.17-1.04-.25-1.76-.25h-1.84v11.3h-4Z"/>
    <path d="M121.04,184.17v-6.4c0-3.52-1.3-5.28-3.9-5.28-1.12,0-2.07.39-2.83,1.16s-1.14,1.78-1.14,3.03c0,1.02.33,1.94,1,2.76.67.82,1.74,1.23,3.22,1.23,1.08,0,1.88-.24,2.4-.72v4c-.96.4-1.92.59-2.9.59-2.02,0-3.81-.7-5.37-2.09-1.56-1.39-2.34-3.26-2.34-5.59,0-2.14.73-4.05,2.19-5.73,1.46-1.67,3.41-2.51,5.87-2.51.64,0,1.28.06,1.92.19.63.12,1.32.39,2.06.78.74.4,1.38.91,1.92,1.53.54.62.99,1.48,1.36,2.58.36,1.09.55,2.36.55,3.79v6.68h-4Z"/>
    <path d="M137.68,169v3.87h-2.19c-.83,0-1.54.11-2.12.33-.58.22-1.07.68-1.47,1.39-.33.6-.5,1.27-.5,2s.17,1.43.5,2.03c.42.71.91,1.17,1.48,1.37.57.21,1.27.31,2.11.31h2.19v3.87h-2.25c-3.35,0-5.69-1.13-7.02-3.4-.67-1.17-1-2.56-1-4.18s.33-3.08,1-4.18c1.33-2.27,3.69-3.4,7.09-3.4h2.19Z"/>
    <path d="M144.05,169v9.86l.03.06s.03-.01.03-.03l.03-.06s.05-.06.08-.12c.03-.06.06-.1.08-.12.12-.21.23-.39.31-.56l3.96-7.18c.04-.06.11-.2.22-.41.1-.21.18-.35.22-.42.04-.07.11-.19.22-.36.1-.17.19-.28.27-.34.07-.06.17-.15.3-.26s.25-.19.37-.23c.12-.04.28-.08.45-.12.18-.04.36-.06.55-.06.52,0,.95.1,1.28.31s.56.51.69.91.2.72.23.97.05.56.05.94v12.42h-4v-9.33c0-.29-.01-.47-.03-.53-.02-.08-.07-.04-.16.12-.02.02-.05.06-.08.12s-.06.1-.08.12c-.02.06-.07.16-.16.3-.08.14-.14.23-.16.3l-3.87,6.99c-.02.06-.1.21-.23.44-.14.23-.22.38-.27.47s-.13.22-.27.41c-.14.19-.26.32-.36.41-.1.08-.23.18-.39.28-.16.1-.33.18-.51.22-.19.04-.39.06-.59.06-1.48,0-2.22-1.13-2.22-3.4v-12.14h4Z"/>
    <path d="M154.97,169h12.74v3.87h-4.37v11.3h-4v-11.3h-4.37v-3.87Z"/>
    <path d="M173.27,169v8.83c0,.85.23,1.54.69,2.06.46.52,1.09.78,1.9.78s1.4-.22,1.83-.66c.43-.44.64-.95.64-1.53,0-.62-.22-1.17-.66-1.65-.44-.48-1.03-.72-1.78-.72-.4,0-.85.1-1.37.31v-3.59c.67-.19,1.29-.28,1.87-.28,1.6,0,2.99.5,4.17,1.5,1.18,1,1.76,2.38,1.76,4.15s-.58,3.21-1.73,4.46c-1.16,1.25-2.79,1.87-4.92,1.87-1.92,0-3.46-.59-4.62-1.78-.54-.56-.95-1.21-1.23-1.94-.28-.73-.44-1.35-.48-1.87-.04-.52-.06-1.24-.06-2.15v-7.8h4Z"/>
    <path d="M184.94,179.91c.46-.53,1.09-.8,1.9-.8s1.45.26,1.9.8c.46.53.69,1.13.69,1.79s-.23,1.26-.69,1.79c-.46.53-1.09.8-1.9.8s-1.45-.27-1.9-.8c-.46-.53-.69-1.13-.69-1.79s.23-1.26.69-1.79Z"/>
    <path d="M199.42,162.32h4.62v6.43c0,.52.03.93.08,1.23.05.3.19.64.42,1.01.23.37.62.65,1.19.83.56.18,1.29.26,2.19.26h1.65v4.06h-1.97c-.73,0-1.31-.02-1.73-.05-.43-.03-1.01-.11-1.75-.23-.74-.12-1.4-.37-2-.73-.59-.36-1.1-.84-1.51-1.42-.79-1.06-1.19-2.65-1.19-4.78v-6.62ZM201.02,179.8h5.24c1.77,0,2.96-.22,3.56-.66.31-.23.55-.52.7-.86.16-.34.24-.65.27-.91.02-.26.03-.64.03-1.14v-13.92h4.62v13.45c0,1-.02,1.76-.05,2.28s-.21,1.22-.55,2.11c-.33.88-.83,1.63-1.5,2.23-.81.75-1.72,1.23-2.73,1.45-1.01.22-2.21.33-3.61.33h-5.99v-4.37Z"/>
    <path d="M220.37,190.23v-3.87c1.94.54,3.54.81,4.81.81,1.52,0,2.65-.32,3.4-.97.4-.33.69-.74.87-1.23.19-.49.29-.89.31-1.2.02-.31.03-.79.03-1.44v-4.78c0-.56-.01-1-.03-1.31-.02-.31-.1-.7-.25-1.17-.15-.47-.36-.89-.66-1.26-.71-.88-1.65-1.31-2.84-1.31-1.06,0-1.98.36-2.75,1.09s-1.15,1.69-1.15,2.87c0,.79.18,1.49.55,2.09.36.6.84,1.05,1.42,1.34.54.27,1.14.41,1.81.41,1.14,0,2.03-.38,2.65-1.15v4c-.9.69-1.88,1.03-2.97,1.03-1.27,0-2.46-.3-3.56-.91-1.21-.67-2.16-1.59-2.86-2.76s-1.05-2.5-1.05-3.98c0-1.27.28-2.49.84-3.65.56-1.17,1.47-2.17,2.73-3,1.26-.83,2.73-1.25,4.42-1.25,2.35,0,4.23.78,5.65,2.34.85.94,1.4,1.94,1.65,3.01.25,1.07.37,2.35.37,3.82v4.65c0,.77-.02,1.38-.05,1.83s-.12,1.01-.27,1.7c-.15.69-.41,1.31-.78,1.86-.37.55-.85,1.07-1.44,1.54-1.37,1.1-3.29,1.65-5.74,1.65-1.87,0-3.59-.27-5.15-.81Z"/>
    <path d="M249.81,177.21l2.59,2.12c-.73,1.62-1.79,2.9-3.2,3.82-1.4.93-2.98,1.39-4.73,1.39-2.41,0-4.39-.79-5.93-2.36-1.54-1.57-2.31-3.5-2.31-5.79,0-2.12.74-3.95,2.23-5.48,1.49-1.53,3.46-2.29,5.92-2.29,1.77,0,3.31.45,4.64,1.36s2.31,2.12,2.98,3.64l-8.93,5.43-1.34-2.28,5.68-3.62c-.75-.79-1.76-1.19-3.03-1.19-1.73,0-2.96.72-3.68,2.15-.31.62-.47,1.37-.47,2.25,0,.71.17,1.39.5,2.06.37.77.92,1.39,1.64,1.86.72.47,1.57.7,2.54.7,1.08,0,2.06-.35,2.95-1.05.88-.7,1.53-1.61,1.95-2.73Z"/>
    <path d="M254.83,190.92v-13.52c0-1.54.22-2.89.66-4.04.44-1.16,1.02-2.07,1.76-2.75.74-.68,1.55-1.18,2.45-1.5.89-.32,1.85-.48,2.87-.48,2.5,0,4.47.83,5.93,2.48,1.46,1.66,2.19,3.55,2.19,5.7,0,2.39-.78,4.28-2.33,5.67-1.55,1.38-3.3,2.08-5.26,2.08-1.06,0-2.07-.31-3.03-.94v-4.03c.81.73,1.67,1.09,2.59,1.09,1.12,0,2.08-.34,2.86-1.03.78-.69,1.17-1.69,1.17-3s-.37-2.28-1.11-3.03c-.74-.75-1.7-1.12-2.89-1.12-2.58,0-3.87,1.74-3.87,5.21v13.21h-4Z"/>
    <path d="M280.87,169h4v5.65h.34c.92,0,1.7-.84,2.34-2.53l1.19-3.12h4.18l-1.78,3.84s-.1.21-.23.5c-.14.29-.22.48-.27.58-.04.09-.14.26-.28.48-.15.23-.28.41-.39.53-.12.12-.27.27-.47.44s-.41.31-.64.44c1.29.29,2.26.91,2.9,1.84.54.79.81,2.1.81,3.93v2.59h-4v-3.12c0-.39-.03-.73-.08-1.01-.05-.28-.16-.6-.31-.95s-.43-.62-.81-.81c-.39-.19-.87-.28-1.45-.28h-1.06v6.18h-4v-6.18h-1.12c-1.73,0-2.59,1.02-2.59,3.06v3.12h-4v-2.59c0-1.83.27-3.14.81-3.93.65-.94,1.61-1.55,2.9-1.84-.23-.12-.44-.27-.64-.44-.2-.17-.35-.31-.47-.44s-.24-.3-.39-.53c-.15-.23-.24-.39-.28-.48s-.13-.29-.26-.58c-.14-.29-.21-.46-.23-.5l-1.78-3.84h4.18l1.22,3.12c.69,1.69,1.46,2.53,2.31,2.53h.34v-5.65Z"/>
    <path d="M306.84,184.17v-6.4c0-3.52-1.3-5.28-3.9-5.28-1.12,0-2.07.39-2.83,1.16s-1.14,1.78-1.14,3.03c0,1.02.33,1.94,1,2.76.67.82,1.74,1.23,3.22,1.23,1.08,0,1.88-.24,2.4-.72v4c-.96.4-1.92.59-2.9.59-2.02,0-3.81-.7-5.37-2.09-1.56-1.39-2.34-3.26-2.34-5.59,0-2.14.73-4.05,2.18-5.73,1.46-1.67,3.41-2.51,5.87-2.51.64,0,1.29.06,1.92.19s1.32.39,2.06.78c.74.4,1.38.91,1.92,1.53.54.62.99,1.48,1.36,2.58.36,1.09.55,2.36.55,3.79v6.68h-4Z"/>
    <path d="M312.39,169h12.74v3.87h-4.37v11.3h-4v-11.3h-4.37v-3.87Z"/>
    <path d="M330.69,169v8.83c0,.85.23,1.54.69,2.06s1.09.78,1.9.78,1.4-.22,1.83-.66c.43-.44.64-.95.64-1.53,0-.62-.22-1.17-.66-1.65-.44-.48-1.03-.72-1.78-.72-.4,0-.85.1-1.37.31v-3.59c.67-.19,1.29-.28,1.87-.28,1.6,0,2.99.5,4.17,1.5s1.76,2.38,1.76,4.15-.58,3.21-1.73,4.46c-1.16,1.25-2.79,1.87-4.92,1.87-1.92,0-3.45-.59-4.62-1.78-.54-.56-.95-1.21-1.23-1.94-.28-.73-.44-1.35-.48-1.87s-.06-1.24-.06-2.15v-7.8h4Z"/>
    <path d="M342.36,179.91c.46-.53,1.09-.8,1.9-.8s1.45.26,1.9.8c.46.53.69,1.13.69,1.79s-.23,1.26-.69,1.79c-.46.53-1.09.8-1.9.8s-1.45-.27-1.9-.8c-.46-.53-.69-1.13-.69-1.79s.23-1.26.69-1.79Z"/>
    <path d="M369.95,179.8v4.37h-2.31c-1.37,0-2.64-.18-3.79-.55-1.15-.36-2.13-.85-2.92-1.45-.79-.6-1.43-1.17-1.92-1.72-.49-.54-.91-1.11-1.26-1.72-.98-1.67-1.47-3.5-1.47-5.49s.49-3.83,1.47-5.49c.35-.6.78-1.17,1.26-1.72.49-.54,1.13-1.11,1.92-1.72.79-.6,1.76-1.09,2.92-1.45,1.16-.36,2.42-.55,3.79-.55h2.31v4.37h-2.31c-1.92,0-3.52.62-4.81,1.87-1.29,1.25-1.93,2.81-1.93,4.68s.64,3.43,1.93,4.68c1.29,1.25,2.89,1.87,4.81,1.87h2.31Z"/>
    <path d="M374.01,182.24c-1.54-1.54-2.31-3.42-2.31-5.65s.77-4.11,2.31-5.65,3.42-2.31,5.65-2.31,4.11.77,5.65,2.31c1.54,1.54,2.31,3.42,2.31,5.65s-.77,4.11-2.31,5.65c-1.54,1.54-3.42,2.31-5.65,2.31s-4.11-.77-5.65-2.31ZM376.85,173.68c-.77.79-1.16,1.76-1.16,2.9s.39,2.11,1.16,2.9c.77.79,1.71,1.19,2.81,1.19s2.04-.4,2.81-1.19c.77-.79,1.16-1.76,1.16-2.9s-.39-2.11-1.16-2.9c-.77-.79-1.71-1.19-2.81-1.19s-2.04.4-2.81,1.19Z"/>
    <path d="M388.81,180.3h.25c1.54,0,2.6-.55,3.18-1.65.29-.52.44-1.21.44-2.06s-.15-1.54-.44-2.06c-.58-1.1-1.64-1.65-3.18-1.65h-.25v-3.87h.44c.52,0,.97.03,1.36.08.38.05.87.16,1.45.33.58.17,1.1.48,1.54.94.45.46.81,1.03,1.08,1.72.81-2.04,2.6-3.06,5.37-3.06h.5v3.87h-.25c-1.52,0-2.58.55-3.18,1.65-.29.5-.44,1.17-.44,2s.15,1.54.44,2.06c.6,1.14,1.66,1.72,3.18,1.72h.25v3.87h-.44c-2.75,0-4.56-1.01-5.43-3.03-.87,2.02-2.66,3.03-5.37,3.03h-.5v-3.87Z"/>
    <path d="M402.17,190.92v-13.52c0-1.54.22-2.89.66-4.04.44-1.16,1.02-2.07,1.76-2.75.74-.68,1.55-1.18,2.45-1.5.89-.32,1.85-.48,2.87-.48,2.5,0,4.47.83,5.93,2.48,1.46,1.66,2.19,3.55,2.19,5.7,0,2.39-.78,4.28-2.33,5.67-1.55,1.38-3.3,2.08-5.26,2.08-1.06,0-2.07-.31-3.03-.94v-4.03c.81.73,1.67,1.09,2.59,1.09,1.12,0,2.08-.34,2.86-1.03.78-.69,1.17-1.69,1.17-3s-.37-2.28-1.11-3.03c-.74-.75-1.7-1.12-2.89-1.12-2.58,0-3.87,1.74-3.87,5.21v13.21h-4Z"/>
    <path d="M431.89,184.17v-6.4c0-3.52-1.3-5.28-3.9-5.28-1.12,0-2.07.39-2.83,1.16s-1.14,1.78-1.14,3.03c0,1.02.33,1.94,1,2.76.67.82,1.74,1.23,3.22,1.23,1.08,0,1.88-.24,2.4-.72v4c-.96.4-1.92.59-2.9.59-2.02,0-3.81-.7-5.37-2.09-1.56-1.39-2.34-3.26-2.34-5.59,0-2.14.73-4.05,2.18-5.73,1.46-1.67,3.41-2.51,5.87-2.51.64,0,1.29.06,1.92.19s1.32.39,2.06.78c.74.4,1.38.91,1.92,1.53.54.62.99,1.48,1.36,2.58.36,1.09.55,2.36.55,3.79v6.68h-4Z"/>
    <path d="M438.75,184.17v-15.17h4v5.65h5.18v-5.65h4v15.17h-4v-6.18h-5.18v6.18h-4Z"/>
    <path d="M458.79,169v9.86l.03.06s.03-.01.03-.03l.03-.06s.05-.06.08-.12.06-.1.08-.12c.12-.21.23-.39.31-.56l3.96-7.18c.04-.06.11-.2.22-.41.1-.21.18-.35.22-.42.04-.07.11-.19.22-.36.1-.17.19-.28.27-.34.07-.06.17-.15.3-.26.12-.11.25-.19.37-.23.12-.04.28-.08.45-.12.18-.04.36-.06.55-.06.52,0,.95.1,1.28.31.33.21.56.51.69.91s.2.72.23.97.05.56.05.94v12.42h-4v-9.33c0-.29-.01-.47-.03-.53-.02-.08-.07-.04-.16.12-.02.02-.05.06-.08.12s-.06.1-.08.12c-.02.06-.07.16-.16.3-.08.14-.14.23-.16.3l-3.87,6.99c-.02.06-.1.21-.23.44-.14.23-.22.38-.26.47-.04.08-.13.22-.27.41-.14.19-.25.32-.36.41-.1.08-.23.18-.39.28s-.33.18-.52.22c-.19.04-.38.06-.59.06-1.48,0-2.22-1.13-2.22-3.4v-12.14h4Z"/>
    <path d="M469.72,169h12.74v3.87h-4.37v11.3h-4v-11.3h-4.37v-3.87Z"/>
    <path d="M488.01,169v8.83c0,.85.23,1.54.69,2.06s1.09.78,1.9.78,1.4-.22,1.83-.66c.43-.44.64-.95.64-1.53,0-.62-.22-1.17-.66-1.65-.44-.48-1.03-.72-1.78-.72-.4,0-.85.1-1.37.31v-3.59c.67-.19,1.29-.28,1.87-.28,1.6,0,2.99.5,4.17,1.5s1.76,2.38,1.76,4.15-.58,3.21-1.73,4.46c-1.16,1.25-2.79,1.87-4.92,1.87-1.92,0-3.45-.59-4.62-1.78-.54-.56-.95-1.21-1.23-1.94-.28-.73-.44-1.35-.48-1.87s-.06-1.24-.06-2.15v-7.8h4Z"/>
  </g>
</svg>